# xmcd
#
# Track frame offsets:
#	150
#	21705
#	42682
#	64425
#	88025
#	103312
#	118762
#	142612
#	166365
#	185550
#
# Disc length: 2790 seconds
#
# Revision: 1
# Processed by: cddbd v1.5PL3 Copyright (c) Steve Scherf et al.
# Submitted via: CDex 1.50Beta5
#
DISCID=970ae40a
DTITLE=ROLL DAYS - Cyber Pleasure/Groovy Pain
DYEAR=1997
DGENRE=Rock
TTITLE0=好きだよ ずっと好きでした
TTITLE1=かなりLUCKY でもねBAD
TTITLE2=今すぐ逢いたい 抱きしめたい
TTITLE3=心から好きと言えばよかったのに
TTITLE4=愛さえなければ
TTITLE5=抱いて
TTITLE6=Bye-Bye
TTITLE7=つらいでしょ
TTITLE8=BREAK YOURSELF
TTITLE9=Singing Under The Sky
EXTD=
EXTT0=
EXTT1=
EXTT2=
EXTT3=
EXTT4=
EXTT5=
EXTT6=
EXTT7=
EXTT8=
EXTT9=
PLAYORDER=
